<svg id="Header" xmlns="http://www.w3.org/2000/svg" viewBox="0 0 24 24"><defs><style>.cls-1{fill:#999;}</style></defs><title>decide_inactive</title><path class="cls-1" d="M2566,12V34h-22V12h22m0-1h-22a1,1,0,0,0-1,1V34a1,1,0,0,0,1,1h22a1,1,0,0,0,1-1V12a1,1,0,0,0-1-1h0Z" transform="translate(-2543 -11)"/><rect class="cls-1" y="19" width="24" height="1"/><rect class="cls-1" y="15" width="24" height="1"/><rect class="cls-1" x="5.75" y="11" width="1" height="13"/><rect class="cls-1" x="11.5" y="11" width="1" height="13"/><path class="cls-1" d="M2557.56,19.62l-4.9-3.09-4.39,2.88a0.5,0.5,0,1,1-.55-0.84l4.93-3.23,4.79,3,4.22-3.86a0.5,0.5,0,1,1,.68.74Z" transform="translate(-2543 -11)"/><rect class="cls-1" x="17.25" y="11" width="1" height="13"/><rect class="cls-1" y="11" width="24" height="1"/></svg>