<svg id="Header" xmlns="http://www.w3.org/2000/svg" viewBox="0 0 24 24"><defs><style>.cls-1{fill:#999;}</style></defs><title>design_inactive</title><path class="cls-1" d="M2662,12V34h-22V12h22m1,0a1,1,0,0,0-1-1h-22a1,1,0,0,0-1,1V34a1,1,0,0,0,1,1h22a1,1,0,0,0,1-1V12h0Z" transform="translate(-2639 -11)"/><path class="cls-1" d="M2658.5,28.5h-5.57a2,2,0,0,0-3.86,0h-5.57a0.5,0.5,0,0,0,0,1h5.57a2,2,0,0,0,3.86,0h5.57A0.5,0.5,0,0,0,2658.5,28.5ZM2651,30a1,1,0,0,1-.85-0.5,0.89,0.89,0,0,1,0-1,1,1,0,0,1,1.69,0,0.89,0.89,0,0,1,0,1A1,1,0,0,1,2651,30Z" transform="translate(-2639 -11)"/><path class="cls-1" d="M2658.5,22.5h-9.57a2,2,0,0,0-3.86,0h-1.57a0.5,0.5,0,0,0,0,1h1.57a2,2,0,0,0,3.86,0h9.57A0.5,0.5,0,0,0,2658.5,22.5ZM2647,24a1,1,0,0,1-.85-0.5,0.89,0.89,0,0,1,0-1,1,1,0,0,1,1.69,0,0.89,0.89,0,0,1,0,1A1,1,0,0,1,2647,24Z" transform="translate(-2639 -11)"/><path class="cls-1" d="M2643.5,17.5h9.57a2,2,0,0,0,3.86,0h1.57a0.5,0.5,0,0,0,0-1h-1.57a2,2,0,0,0-3.86,0h-9.57A0.5,0.5,0,0,0,2643.5,17.5ZM2655,16a1,1,0,0,1,.85.5,0.89,0.89,0,0,1,0,1,1,1,0,0,1-1.69,0,0.89,0.89,0,0,1,0-1A1,1,0,0,1,2655,16Z" transform="translate(-2639 -11)"/></svg>