<svg id="Header" xmlns="http://www.w3.org/2000/svg" viewBox="0 0 24 24"><defs><style>.cls-1{fill:#fff;}</style></defs><title>do_active</title><path class="cls-1" d="M2614,12V34h-22V12h22m0-1h-22a1,1,0,0,0-1,1V34a1,1,0,0,0,1,1h22a1,1,0,0,0,1-1V12a1,1,0,0,0-1-1h0Z" transform="translate(-2591 -11)"/><rect class="cls-1" y="9" width="24" height="1"/><path class="cls-1" d="M2594,14.5a0.5,0.5,0,0,1,.5-0.5h8a0.5,0.5,0,0,1,0,1h-8A0.5,0.5,0,0,1,2594,14.5Z" transform="translate(-2591 -11)"/><path class="cls-1" d="M2594,17.5a0.5,0.5,0,0,1,.5-0.5h13a0.5,0.5,0,0,1,0,1h-13A0.5,0.5,0,0,1,2594,17.5Z" transform="translate(-2591 -11)"/><path class="cls-1" d="M2600,28h-6V23h6v5Zm-5-1h4V24h-4v3Z" transform="translate(-2591 -11)"/><path class="cls-1" d="M2602,28h5v4h-5V28Zm4,1h-3v2h3V29Z" transform="translate(-2591 -11)"/><path class="cls-1" d="M2606,24h6v5h-6V24Zm5,1h-4v3h4V25Z" transform="translate(-2591 -11)"/></svg>