<svg id="Header" xmlns="http://www.w3.org/2000/svg" viewBox="0 0 24 24"><defs><style>.cls-1{fill:#e6e6e6;}.cls-2{fill:#999;}</style></defs><title>notifications</title><circle class="cls-1" cx="12" cy="12" r="12"/><path class="cls-2" d="M2741,30a1.53,1.53,0,0,0,1.53-1.5h-3.06A1.53,1.53,0,0,0,2741,30Z" transform="translate(-2729 -11)"/><path class="cls-2" d="M2747,26a13,13,0,0,1-2.2-6.28c0-1-.48-2.26-2.74-2.79h0a1.09,1.09,0,0,0-2.17,0h0c-2.27.53-2.74,1.81-2.74,2.79A13,13,0,0,1,2735,26l-0.08.13v1.42h12.25V26.12Zm-0.92.54h-10.25V26.42a13.92,13.92,0,0,0,2.28-6.7c0-.33,0-1.33,1.92-1.8a5.36,5.36,0,0,1,1.86,0c1.91,0.47,1.91,1.47,1.91,1.8a13.92,13.92,0,0,0,2.28,6.7v0.12Z" transform="translate(-2729 -11)"/></svg>