<svg id="Flag" xmlns="http://www.w3.org/2000/svg" viewBox="0 0 24 24"><defs><style>.cls-1{fill:#ff5d1e;}.cls-2{fill:#fff;}</style></defs><title>notifications_flag</title><circle class="cls-1" cx="12" cy="12" r="12"/><path class="cls-2" d="M2739.18,25.58a2.37,2.37,0,0,0,.63,1.06A1.73,1.73,0,0,0,2741,27a2,2,0,0,0,.73-0.13,2,2,0,0,0,.61-0.36,1.68,1.68,0,0,0,.42-0.56,1.71,1.71,0,0,0,.15-0.73,1.69,1.69,0,0,0-.26-1,1.65,1.65,0,0,0-.67-0.56,2.88,2.88,0,0,0-.9-0.24,8.43,8.43,0,0,0-1-.06V22.17a6.16,6.16,0,0,0,1.26-.1,2.11,2.11,0,0,0,.77-0.3,1,1,0,0,0,.39-0.49,1.82,1.82,0,0,0,.11-0.66,1.5,1.5,0,0,0-.48-1.2A1.77,1.77,0,0,0,2741,19a1.66,1.66,0,0,0-1,.31,2,2,0,0,0-.67.83L2738,19.7a2.76,2.76,0,0,1,1.2-1.41,3.59,3.59,0,0,1,1.8-.46,4.11,4.11,0,0,1,1.16.16,2.77,2.77,0,0,1,1,.5,2.38,2.38,0,0,1,.67.85,2.73,2.73,0,0,1,.25,1.2,2.25,2.25,0,0,1-.47,1.4,2.33,2.33,0,0,1-1.22.84v0a2.36,2.36,0,0,1,.83.31,2.21,2.21,0,0,1,.62.56,2.42,2.42,0,0,1,.38.75,3,3,0,0,1,.13.88,2.74,2.74,0,0,1-.27,1.25,2.63,2.63,0,0,1-.73.9,3.18,3.18,0,0,1-1,.54,4.25,4.25,0,0,1-1.25.18,3.79,3.79,0,0,1-2-.52,2.74,2.74,0,0,1-1.2-1.64Z" transform="translate(-2729 -11)"/></svg>